<svg xmlns="http://www.w3.org/2000/svg" version="1.1" xmlns:xlink="http://www.w3.org/1999/xlink" xmlns:svgjs="http://svgjs.dev/svgjs" width="1000" height="1000" viewBox="0 0 1000 1000"><rect width="1000" height="1000" fill="#ffffff"></rect><g transform="matrix(0.7,0,0,0.7,149.57575777861882,462.47817692217393)"><svg viewBox="0 0 396 43" data-background-color="#ffffff" preserveAspectRatio="xMidYMid meet" height="108" width="1000" xmlns="http://www.w3.org/2000/svg" xmlns:xlink="http://www.w3.org/1999/xlink"><defs></defs><g id="tight-bounds" transform="matrix(1,0,0,1,0.2399998852384897,-0.1582221361679501)"><svg viewBox="0 0 395.52 43.316444459626645" height="43.316444459626645" width="395.52"><g><svg viewBox="0 0 467.5687162269381 51.207054832886065" height="43.316444459626645" width="395.52"><g><rect width="3.3414653042765945" height="37.23812598194681" x="404.2672913724518" y="6.984464425469628" fill="#000000" opacity="1" stroke-width="0" stroke="transparent" fill-opacity="1" class="rect-o-0" data-fill-palette-color="primary" rx="1%" id="o-0" data-palette-color="#4a596d"></rect></g><g transform="matrix(1,0,0,1,0,7.077096579653574)"><svg viewBox="0 0 395.52 37.05286167357892" height="37.05286167357892" width="395.52"><g><svg viewBox="0 0 395.52 37.05286167357892" height="37.05286167357892" width="395.52"><g><svg viewBox="0 0 395.52 37.05286167357892" height="37.05286167357892" width="395.52"><g transform="matrix(1,0,0,1,0,0)"><svg width="395.52" viewBox="3.25 -36.5 400.260009765625 37.5" height="37.05286167357892" data-palette-color="#4a596d"><g class="undefined-text-0" data-fill-palette-color="primary" id="text-0"><path d="M11.4-32.54L11.4-32.54 11.4-2.15Q12.72-1.98 13.94-1.89 15.16-1.81 16.33-1.81L16.33-1.81Q20.46-1.81 23.73-2.87 27-3.93 29.27-6.09 31.54-8.25 32.75-11.49 33.96-14.72 33.96-19.09L33.96-19.09Q33.94-21.97 33.23-24.19 32.52-26.42 31.25-28.06 29.98-29.71 28.26-30.82 26.54-31.93 24.52-32.63 22.51-33.33 20.28-33.62 18.04-33.91 15.75-33.91L15.75-33.91Q14.65-33.91 13.55-33.84 12.45-33.76 11.3-33.64L11.3-33.64Q11.35-33.3 11.38-33.02 11.4-32.74 11.4-32.54ZM3.34-33.74L3.25-34.45Q5.37-34.72 7.06-34.92 8.74-35.13 10.33-35.28 11.91-35.42 13.6-35.5 15.28-35.57 17.41-35.57L17.41-35.57Q19.24-35.57 20.75-35.47 22.27-35.38 23.62-35.14 24.98-34.91 26.28-34.53 27.59-34.16 29.03-33.62L29.03-33.62Q30.96-32.89 32.58-31.65 34.2-30.42 35.38-28.64 36.55-26.86 37.19-24.49 37.84-22.12 37.84-19.09L37.84-19.09Q37.82-15.5 36.91-12.7 36.01-9.89 34.4-7.76 32.79-5.64 30.58-4.15 28.37-2.66 25.78-1.73 23.19-0.81 20.31-0.39 17.43 0.02 14.48 0.02L14.48 0.02Q14.23 0.02 12.88 0.04 11.52 0.05 9.99 0.17 8.45 0.29 7.3 0.44L7.3 0.44 7.15 0.2Q7.64-0.51 7.64-2.39L7.64-2.39 7.64-28.1Q7.64-29.71 7.5-30.8 7.35-31.88 6.96-32.54 6.57-33.2 5.86-33.48 5.15-33.76 4.52-33.76 3.88-33.76 3.71-33.76 3.54-33.76 3.34-33.74L3.34-33.74ZM52.76-18.19L52.76-1.49 61.35-1.76Q63.13-1.81 64.35-2.17 65.57-2.54 66.45-3.21 67.33-3.88 67.99-4.87 68.65-5.86 69.31-7.15L69.31-7.15 70.02-6.86 67.6-0.34 67.21 0 49.46 0Q49-1 49-2.39L49-2.39 49-28.34Q49-29.96 48.85-30.99 48.7-32.03 48.31-32.65 47.92-33.28 47.23-33.52 46.53-33.76 45.43-33.76L45.43-33.76Q45.26-33.76 45.08-33.76 44.89-33.76 44.7-33.74L44.7-33.74 44.6-34.45Q51.56-35.55 59.93-35.55L59.93-35.55Q64.21-35.55 68.89-35.25L68.89-35.25 69.06-34.84 66.75-28.76 65.96-29Q66.16-29.93 66.26-30.71 66.35-31.49 66.35-32.24 66.35-32.98 66.16-33.64L66.16-33.64Q64.33-33.81 62.56-33.9 60.79-33.98 59.03-33.98L59.03-33.98Q55.83-33.98 52.76-33.69L52.76-33.69 52.76-19.9 66.11-20.63 66.35-20.36 65.21-18.36Q64.11-18.41 62.99-18.43 61.86-18.46 60.69-18.46L60.69-18.46Q58.79-18.46 56.81-18.38 54.83-18.31 52.76-18.19L52.76-18.19ZM80.05-1.86L80.05-1.86Q82.73-0.49 85.35-0.49L85.35-0.49Q86.93-0.49 88.29-0.96 89.64-1.44 90.63-2.39 91.62-3.34 92.18-4.75 92.74-6.15 92.74-8.01L92.74-8.01Q92.74-9.4 92.45-10.44 92.16-11.47 91.33-12.46 90.5-13.45 89.01-14.58 87.52-15.7 85.1-17.26L85.1-17.26Q81.25-19.78 79.47-22.09 77.7-24.41 77.7-26.81L77.7-26.81Q77.7-29.15 78.68-30.92 79.66-32.69 81.26-33.87 82.86-35.06 84.87-35.66 86.88-36.25 88.96-36.25L88.96-36.25Q92.7-36.25 95.65-34.55L95.65-34.55Q94.97-30.76 93.26-27.2L93.26-27.2 92.6-27.54Q92.74-28.47 92.83-29.31 92.91-30.15 92.91-30.9 92.91-31.64 92.84-32.26 92.77-32.89 92.65-33.45L92.65-33.45Q90.69-34.59 88.45-34.59L88.45-34.59Q87.03-34.59 85.75-34.17 84.47-33.74 83.49-32.91 82.51-32.08 81.93-30.87 81.34-29.66 81.34-28.1L81.34-28.1Q81.34-27 81.73-26.05 82.12-25.1 82.94-24.15 83.76-23.19 84.99-22.17 86.23-21.14 87.91-19.9L87.91-19.9Q88.91-19.17 89.79-18.57 90.67-17.97 91.43-17.43 92.18-16.89 92.83-16.38 93.48-15.87 94.04-15.28L94.04-15.28Q96.75-12.43 96.75-8.64L96.75-8.64Q96.75-6.1 95.86-4.27 94.97-2.44 93.43-1.27 91.89-0.1 89.84 0.45 87.79 1 85.49 1L85.49 1Q81.37 1 77.05-0.66L77.05-0.66Q77.8-4.59 79.44-8.01L79.44-8.01 80.1-7.64Q79.8-6.27 79.8-4.3 79.8-2.32 80.05-1.86ZM111.83-32.59L111.83-32.59 111.83-4.39Q111.83-2.42 112.64-1.51 113.44-0.61 115.69-0.2L115.69-0.2 115.5 0.39Q112.79 0.02 111.37 0 109.95-0.02 107.76 0.39L107.76 0.39 107.59 0.15Q108.1-0.56 108.1-2.44L108.1-2.44 108.1-28.1Q108.1-31.54 107.27-32.74 106.44-33.94 103.8-33.74L103.8-33.74 103.7-34.2Q107.73-35.4 111.35-35.4L111.35-35.4Q111.83-34.06 111.83-32.59ZM149.31-3.1L149.31-3.1 149.31-7.1Q149.31-10.55 148.48-11.73 147.65-12.92 144.99-12.74L144.99-12.74 144.89-13.21Q148.92-14.4 152.55-14.4L152.55-14.4Q153.04-13.06 153.04-11.6L153.04-11.6 153.04-4.59Q153.04-2.29 153.51-1.66L153.51-1.66 153.36-1.39Q151.43-1.39 149.18-0.79 146.94-0.2 144.37 0.4 141.81 1 139.15 1L139.15 1Q135.46 1 132.29-0.35 129.12-1.71 126.83-4.13 124.55-6.54 123.24-10.08 121.94-13.62 121.94-17.8L121.94-17.8Q121.94-21.63 122.98-24.77 124.01-27.91 125.81-30.05 127.6-32.2 130.12-33.68 132.63-35.16 135.52-35.83 138.42-36.5 141.69-36.5L141.69-36.5Q147.28-36.5 152.19-34.2L152.19-34.2Q151.33-31.15 149.75-27.76L149.75-27.76 149.09-28Q149.48-30.91 149.26-32.79L149.26-32.79Q148.18-33.4 147.13-33.8 146.08-34.2 144.91-34.44 143.74-34.67 142.39-34.75 141.03-34.84 139.35-34.84L139.35-34.84Q137.1-34.84 135.16-34.27 133.22-33.69 131.53-32.37 129.85-31.05 128.65-29.06 127.46-27.08 126.77-24.11 126.09-21.14 126.09-17.41L126.09-17.41Q126.09-13.82 127.31-10.64 128.53-7.47 130.54-5.3 132.56-3.13 135.2-1.87 137.83-0.61 140.64-0.61L140.64-0.61Q143.42-0.61 145.31-1.11 147.21-1.61 149.31-3.1ZM190.25-34.11L190.25 0 189.25 0Q187.59-2.25 179.72-12.17 171.86-22.09 168.49-26.54L168.49-26.54Q167.03-28.44 165.69-31.01L165.69-31.01 165.54-30.91 165.54-3.15Q165.54-2.22 166.14-1.71 166.74-1.2 167.46-1.01 168.18-0.83 169.45-0.61 170.72-0.39 170.93-0.34L170.93-0.34 170.93 0.15Q166.32-0.15 163.54 0.15L163.54 0.15Q163.39-0.51 163.39-1.15L163.39-1.15 163.39-29.25Q163.32-30.98 162.78-32.35L162.78-32.35Q162.07-34.25 159.53-34.06L159.53-34.06 159.53-34.55Q162.95-35.4 166.25-35.4L166.25-35.4 184.63-11.89Q185.93-10.25 186.69-8.95 187.46-7.64 188.2-5.69L188.2-5.69 188.2-31.1Q188.2-32.81 186.91-33.53 185.63-34.25 182.9-34.06L182.9-34.06 182.78-34.55Q185.95-35.33 189.83-35.4L189.83-35.4Q190.25-34.77 190.25-34.11L190.25-34.11ZM207.24-15.6L207.24-15.6 195.74-15.6 195.74-16.46Q197.96-17.46 199.74-17.46L199.74-17.46 211.24-17.46 211.24-16.6Q209.12-15.6 207.24-15.6ZM218.54-1.86L218.54-1.86Q221.22-0.49 223.84-0.49L223.84-0.49Q225.42-0.49 226.78-0.96 228.13-1.44 229.12-2.39 230.11-3.34 230.67-4.75 231.23-6.15 231.23-8.01L231.23-8.01Q231.23-9.4 230.94-10.44 230.65-11.47 229.82-12.46 228.99-13.45 227.5-14.58 226.01-15.7 223.59-17.26L223.59-17.26Q219.73-19.78 217.96-22.09 216.19-24.41 216.19-26.81L216.19-26.81Q216.19-29.15 217.17-30.92 218.15-32.69 219.75-33.87 221.34-35.06 223.36-35.66 225.37-36.25 227.45-36.25L227.45-36.25Q231.18-36.25 234.14-34.55L234.14-34.55Q233.45-30.76 231.75-27.2L231.75-27.2 231.09-27.54Q231.23-28.47 231.32-29.31 231.4-30.15 231.4-30.9 231.4-31.64 231.33-32.26 231.26-32.89 231.13-33.45L231.13-33.45Q229.18-34.59 226.94-34.59L226.94-34.59Q225.52-34.59 224.24-34.17 222.96-33.74 221.98-32.91 221-32.08 220.42-30.87 219.83-29.66 219.83-28.1L219.83-28.1Q219.83-27 220.22-26.05 220.61-25.1 221.43-24.15 222.25-23.19 223.48-22.17 224.71-21.14 226.4-19.9L226.4-19.9Q227.4-19.17 228.28-18.57 229.16-17.97 229.91-17.43 230.67-16.89 231.32-16.38 231.96-15.87 232.53-15.28L232.53-15.28Q235.24-12.43 235.24-8.64L235.24-8.64Q235.24-6.1 234.35-4.27 233.45-2.44 231.92-1.27 230.38-0.1 228.33 0.45 226.28 1 223.98 1L223.98 1Q219.86 1 215.53-0.66L215.53-0.66Q216.29-4.59 217.93-8.01L217.93-8.01 218.59-7.64Q218.29-6.27 218.29-4.3 218.29-2.32 218.54-1.86ZM244.44-35.35L244.44-35.35Q245.34-35.45 245.93-34.3L245.93-34.3 254.74-18.04Q262.46-30.08 263.43-32.59L263.43-32.59Q263.75-33.5 262.87-34.02 261.99-34.55 259.94-34.74L259.94-34.74 259.84-35.21Q264.24-35.62 266.39-34.96L266.39-34.96Q266.78-34.77 266.58-34.35L266.58-34.35Q266.17-33.52 265.68-32.63 265.19-31.74 255.84-16.75L255.84-16.75 255.84-4.39Q255.84-2.42 256.63-1.51 257.43-0.61 259.67-0.2L259.67-0.2 259.48 0.39Q256.77 0.02 255.35 0 253.94-0.02 251.74 0.39L251.74 0.39 251.59 0.15Q252.08-0.56 252.08-2.44L252.08-2.44 252.08-15.8 244.34-29.81Q243.36-31.45 242.61-32.15 241.85-32.86 241.02-32.97 240.19-33.08 239.04-32.91L239.04-32.91 238.68-33.35Q242.27-35.16 244.44-35.35ZM273.17-1.86L273.17-1.86Q275.86-0.49 278.47-0.49L278.47-0.49Q280.06-0.49 281.41-0.96 282.77-1.44 283.75-2.39 284.74-3.34 285.3-4.75 285.87-6.15 285.87-8.01L285.87-8.01Q285.87-9.4 285.57-10.44 285.28-11.47 284.45-12.46 283.62-13.45 282.13-14.58 280.64-15.7 278.22-17.26L278.22-17.26Q274.37-19.78 272.6-22.09 270.83-24.41 270.83-26.81L270.83-26.81Q270.83-29.15 271.8-30.92 272.78-32.69 274.38-33.87 275.98-35.06 277.99-35.66 280.01-36.25 282.08-36.25L282.08-36.25Q285.82-36.25 288.77-34.55L288.77-34.55Q288.09-30.76 286.38-27.2L286.38-27.2 285.72-27.54Q285.87-28.47 285.95-29.31 286.04-30.15 286.04-30.9 286.04-31.64 285.96-32.26 285.89-32.89 285.77-33.45L285.77-33.45Q283.82-34.59 281.57-34.59L281.57-34.59Q280.15-34.59 278.87-34.17 277.59-33.74 276.61-32.91 275.64-32.08 275.05-30.87 274.46-29.66 274.46-28.1L274.46-28.1Q274.46-27 274.86-26.05 275.25-25.1 276.06-24.15 276.88-23.19 278.11-22.17 279.35-21.14 281.03-19.9L281.03-19.9Q282.03-19.17 282.91-18.57 283.79-17.97 284.55-17.43 285.3-16.89 285.95-16.38 286.6-15.87 287.16-15.28L287.16-15.28Q289.87-12.43 289.87-8.64L289.87-8.64Q289.87-6.1 288.98-4.27 288.09-2.44 286.55-1.27 285.01-0.1 282.96 0.45 280.91 1 278.62 1L278.62 1Q274.49 1 270.17-0.66L270.17-0.66Q270.92-4.59 272.56-8.01L272.56-8.01 273.22-7.64Q272.93-6.27 272.93-4.3 272.93-2.32 273.17-1.86ZM294.82-34.69L295.12-35.25Q298.68-35.57 302.03-35.71 305.37-35.84 308.64-35.84L308.64-35.84Q311.91-35.84 315.75-35.68 319.58-35.52 324.12-35.21L324.12-35.21 324.41-34.69 322.12-28.76 321.31-29Q321.48-29.86 321.57-30.6 321.65-31.35 321.65-32.01L321.65-32.01Q321.65-32.91 321.51-33.64L321.51-33.64Q318.41-33.84 315.93-33.94 313.45-34.03 311.52-34.06L311.52-34.06 311.52-4.39Q311.52-3.39 311.71-2.69 311.89-1.98 312.33-1.49 312.77-1 313.5-0.7 314.23-0.39 315.36-0.2L315.36-0.2 315.16 0.39Q313.7 0.2 312.62 0.1 311.55 0 310.81 0L310.81 0Q310.13 0 309.29 0.1 308.45 0.2 307.42 0.39L307.42 0.39 307.27 0.15Q307.76-0.56 307.76-2.44L307.76-2.44 307.76-34.06Q305.91-34.03 303.42-33.94 300.93-33.84 297.73-33.64L297.73-33.64Q297.58-32.84 297.58-31.93L297.58-31.93Q297.58-30.64 297.92-29L297.92-29 297.12-28.76 294.82-34.69ZM336.57-18.19L336.57-1.49 345.16-1.76Q346.95-1.81 348.17-2.17 349.39-2.54 350.27-3.21 351.14-3.88 351.8-4.87 352.46-5.86 353.12-7.15L353.12-7.15 353.83-6.86 351.41-0.34 351.02 0 333.27 0Q332.81-1 332.81-2.39L332.81-2.39 332.81-28.34Q332.81-29.96 332.66-30.99 332.52-32.03 332.13-32.65 331.74-33.28 331.04-33.52 330.34-33.76 329.24-33.76L329.24-33.76Q329.07-33.76 328.89-33.76 328.71-33.76 328.51-33.74L328.51-33.74 328.41-34.45Q335.37-35.55 343.75-35.55L343.75-35.55Q348.02-35.55 352.71-35.25L352.71-35.25 352.88-34.84 350.56-28.76 349.78-29Q349.97-29.93 350.07-30.71 350.17-31.49 350.17-32.24 350.17-32.98 349.97-33.64L349.97-33.64Q348.14-33.81 346.37-33.9 344.6-33.98 342.84-33.98L342.84-33.98Q339.65-33.98 336.57-33.69L336.57-33.69 336.57-19.9 349.92-20.63 350.17-20.36 349.02-18.36Q347.92-18.41 346.8-18.43 345.68-18.46 344.5-18.46L344.5-18.46Q342.6-18.46 340.62-18.38 338.64-18.31 336.57-18.19L336.57-18.19ZM380.66-5.05L392.26-33.96Q394.01-35.25 396.06-35.6L396.06-35.6 399.31-4.39Q399.46-2.42 400.34-1.6 401.22-0.78 403.51-0.61L403.51-0.61 403.36 0Q400.56-0.07 398.99 0.05 397.43 0.17 395.67 0.76L395.67 0.76 395.5 0.49Q395.97-0.29 395.77-2.1L395.77-2.1 392.91-30.49 380.37 0.95 378.66 0.15Q378.56-1.59 377.26-4.76L377.26-4.76 366.11-29.44 363.25-3.39Q363.15-2.54 363.39-2.01 363.62-1.49 364.51-1.04 365.4-0.59 367.16-0.24L367.16-0.24 367.06 0.2Q363.06-0.1 360.81 0L360.81 0Q360.61-0.2 360.52-0.49L360.52-0.49 364.2-32.45Q363.52-33.01 362.52-33.04 361.52-33.08 360.61-32.86L360.61-32.86 360.32-33.35Q363.96-35.4 366.96-35.4L366.96-35.4Q367.55-34.08 373.54-20.75 379.54-7.42 380.66-5.05L380.66-5.05Z" fill="#000000" data-fill-palette-color="primary"></path></g></svg></g></svg></g></svg></g></svg></g><g transform="matrix(1,0,0,1,416.3560480491802,0)"><svg viewBox="0 0 51.21266817775786 51.207054832886065" height="51.207054832886065" width="51.21266817775786"><g><svg xmlns="http://www.w3.org/2000/svg" xmlns:xlink="http://www.w3.org/1999/xlink" version="1.1" x="0" y="0" viewBox="4.999633312225342 5.004500389099121 90.0003662109375 89.9905014038086" enable-background="new 0 0 100 100" xml:space="preserve" height="51.207054832886065" width="51.21266817775786" class="icon-icon-0" data-fill-palette-color="accent" id="icon-0"><g fill="#4a596d" data-fill-palette-color="accent"><path d="M95 12.611c0-0.539-0.214-1.058-0.601-1.445l-5.566-5.566c-0.804-0.794-2.086-0.794-2.88 0l-3.266 3.256L81.71 7.879c-0.57-0.58-1.353-0.895-2.157-0.895-0.814 0-1.588 0.315-2.157 0.895l-12.16 12.16H27.166V9.12c0-1.689-1.363-3.053-3.053-3.053-1.689 0-3.053 1.364-3.053 3.053v10.919H10.142c-1.689 0-3.053 1.364-3.053 3.053 0 1.689 1.363 3.053 3.053 3.053h10.919v38.069l-5.352 5.363-0.204 0.193c-0.295 0.295-0.529 0.641-0.682 1.007L5.298 90.62c-0.56 1.17-0.316 2.564 0.6 3.48 0.58 0.59 1.363 0.895 2.157 0.895 0.448 0 0.895-0.102 1.323-0.295l20.016-9.606c0.306-0.153 0.59-0.346 0.835-0.6l5.566-5.566h38.048v10.919c0 1.689 1.374 3.053 3.053 3.053 1.689 0 3.053-1.364 3.053-3.053V78.928h10.919c1.689 0 3.053-1.364 3.053-3.053 0-1.689-1.363-3.053-3.053-3.053H79.95V34.774L92.12 22.604c1.191-1.191 1.191-3.124 0-4.315l-0.977-0.977 3.256-3.266C94.786 13.669 95 13.15 95 12.611zM27.166 26.145h31.963L27.166 58.108V26.145zM14.568 85.43l4.447-9.27 4.834 4.823L14.568 85.43zM41.901 72.822L73.844 40.88v31.943H41.901zM74.739 31.355L32.59 73.514c-0.071 0.071-0.143 0.132-0.214 0.204l-5.017 5.027-6.095-6.095 47.39-47.4 10.899-10.899 6.096 6.095L74.739 31.355zM88.558 14.127l-2.687-2.697 1.516-1.516 2.697 2.697L88.558 14.127z" fill="#000000" data-fill-palette-color="accent"></path></g></svg></g></svg></g></svg></g></svg><rect width="395.52" height="43.316444459626645" fill="none" stroke="none" visibility="hidden"></rect></g></svg></g></svg>